# xmcd
#
# Track frame offsets:
#	150
#	7894
#	15733
#	24025
#	31459
#	39294
#	47599
#	57609
#	66690
#	72577
#	81096
#	91366
#	103633
#	114432
#	124719
#	136400
#	152275
#	162378
#
# Disc length: 2266 seconds
#
# Revision: 0
# Processed by: cddbd v1.5.2PL0 Copyright (c) Steve Scherf et al.
# Submitted via: dBpowerAMP V4.0
#
DISCID=e508d812
DTITLE=Dean Martin - Crooners
DYEAR=1900
DGENRE=Blues
TTITLE0=I Can't Give You Anything But Love
TTITLE1=Candy Kisses
TTITLE2=How It Lies
TTITLE3=I Don't See Me In Your Eyes Any More
TTITLE4=If I Only Had Three Wishes
TTITLE5=Where Are You
TTITLE6=You Won't Be SAtisfied
TTITLE7=Five Foot Two, Eyes Of Blue
TTITLE8=Darktown Strutters Ball
TTITLE9=Sunflower
TTITLE10=Your So Understanding
TTITLE11=Dreamer With a Penny
TTITLE12=Again
TTITLE13=Sault Ste Marie
TTITLE14=Far Away Places
TTITLE15=Some Enchanted Evening
TTITLE16=Riders In The Sky
TTITLE17=Someone Like You
EXTD=
EXTT0=
EXTT1=
EXTT2=
EXTT3=
EXTT4=
EXTT5=
EXTT6=
EXTT7=
EXTT8=
EXTT9=
EXTT10=
EXTT11=
EXTT12=
EXTT13=
EXTT14=
EXTT15=
EXTT16=
EXTT17=
PLAYORDER=
